<svg width="24" height="25" viewBox="0 0 24 25" fill="none" xmlns="http://www.w3.org/2000/svg">
<path opacity="0.4" d="M22.5 3.875C22.5 2.83906 21.6609 2 20.625 2H15.375C14.3391 2 13.5 2.83906 13.5 3.875V9.125C13.5 10.1609 14.3391 11 15.375 11H20.625C21.6609 11 22.5 10.1609 22.5 9.125V3.875ZM10.5 15.875C10.5 14.8391 9.66094 14 8.625 14H3.375C2.33906 14 1.5 14.8391 1.5 15.875V21.125C1.5 22.1609 2.33906 23 3.375 23H8.625C9.66094 23 10.5 22.1609 10.5 21.125V15.875Z" fill="#011C47"/>
<path d="M10.5 4.25C10.5 3.00781 9.49219 2 8.25 2H3.75C2.50781 2 1.5 3.00781 1.5 4.25V8.75C1.5 9.99219 2.50781 11 3.75 11H8.25C9.49219 11 10.5 9.99219 10.5 8.75V4.25ZM22.5 16.25C22.5 15.0078 21.4922 14 20.25 14H15.75C14.5078 14 13.5 15.0078 13.5 16.25V20.75C13.5 21.9922 14.5078 23 15.75 23H20.25C21.4922 23 22.5 21.9922 22.5 20.75V16.25Z" fill="#011C47"/>
</svg>
